<svg xmlns="http://www.w3.org/2000/svg"  viewBox="0 0 64 64" width="64px" height="64px"><path d="M 13 6 C 9.14 6 6 9.141 6 13 L 6 42 L 6 44 L 6 51 C 6 54.859 9.14 58 13 58 L 51 58 C 54.86 58 58 54.859 58 51 L 58 44 L 58 41 L 58 13 C 58 9.141 54.86 6 51 6 L 13 6 z M 13 8 L 51 8 C 53.757 8 56 10.243 56 13 L 56 41 L 56 44 C 56 47.859 52.859 51 49 51 L 15 51 C 11.141 51 8 47.859 8 44 L 8 42 L 8 13 C 8 10.243 10.243 8 13 8 z M 30.082031 10.005859 C 28.199438 10.057344 26.297266 10.479344 24.478516 11.308594 C 17.204516 14.628594 13.989594 23.246531 17.308594 30.519531 C 18.916594 34.042531 21.800687 36.728031 25.429688 38.082031 C 27.067688 38.694031 28.772047 39.005859 30.498047 39.005859 C 30.501047 39.005859 30.504813 39.006813 30.507812 39.007812 C 32.585812 39.007812 34.608531 38.564406 36.519531 37.691406 C 38.274531 36.889406 39.052953 34.809687 38.251953 33.054688 C 37.450953 31.299687 35.370281 30.523266 33.613281 31.322266 C 31.793281 32.153266 29.756953 32.225344 27.876953 31.527344 C 25.999953 30.826344 24.508734 29.437234 23.677734 27.615234 C 21.959734 23.853234 23.622766 19.394734 27.384766 17.677734 C 31.144766 15.958734 35.604266 17.624719 37.322266 21.386719 C 38.154266 23.208719 38.227344 25.245047 37.527344 27.123047 C 37.200344 27.999047 37.233094 28.949781 37.621094 29.800781 C 38.010094 30.650781 38.706078 31.299 39.580078 31.625 C 40.454078 31.952 41.404859 31.920203 42.255859 31.533203 C 43.107859 31.144203 43.756984 30.447312 44.083984 29.570312 C 45.438984 25.942312 45.298453 22.002516 43.689453 18.478516 C 41.198703 13.023016 35.729813 9.8514063 30.082031 10.005859 z M 30.478516 12 C 35.226516 12 39.772141 14.715594 41.869141 19.308594 C 43.256141 22.347594 43.378937 25.743094 42.210938 28.871094 C 42.070938 29.248094 41.791781 29.546891 41.425781 29.712891 C 41.060781 29.878891 40.654297 29.892953 40.279297 29.751953 C 39.903297 29.611953 39.605453 29.334703 39.439453 28.970703 C 39.272453 28.606703 39.258437 28.198266 39.398438 27.822266 C 40.286438 25.444266 40.194625 22.864641 39.140625 20.556641 C 36.966625 15.793641 31.320687 13.684422 26.554688 15.857422 C 24.248687 16.909422 22.490562 18.799687 21.601562 21.179688 C 20.712563 23.559688 20.803469 26.140313 21.855469 28.445312 C 22.908469 30.754312 24.799734 32.514344 27.177734 33.402344 C 29.555734 34.286344 32.135359 34.193578 34.443359 33.142578 C 35.198359 32.799578 36.087688 33.132766 36.429688 33.884766 C 36.773688 34.637766 36.441453 35.527094 35.689453 35.871094 C 34.039453 36.624094 32.295859 37.007812 30.505859 37.007812 L 30.503906 37.007812 L 30.496094 37.007812 C 29.011094 37.007813 27.540953 36.738937 26.126953 36.210938 C 22.998953 35.042938 20.512953 32.726453 19.126953 29.689453 C 16.264953 23.418453 19.038594 15.989906 25.308594 13.128906 C 26.986594 12.362906 28.745516 12 30.478516 12 z M 44 33.498047 C 41.794 33.498047 40 35.292047 40 37.498047 C 40 39.704047 41.794 41.498047 44 41.498047 C 46.206 41.498047 48 39.704047 48 37.498047 C 48 35.292047 46.206 33.498047 44 33.498047 z M 44 35.498047 C 45.103 35.498047 46 36.395047 46 37.498047 C 46 38.601047 45.103 39.498047 44 39.498047 C 42.897 39.498047 42 38.601047 42 37.498047 C 42 36.395047 42.897 35.498047 44 35.498047 z M 17 44 C 16.447 44 16 44.447 16 45 L 16 47 C 16 47.553 16.447 48 17 48 C 17.553 48 18 47.553 18 47 L 18 45 C 18 44.447 17.553 44 17 44 z M 22 44 C 21.447 44 21 44.447 21 45 L 21 47 C 21 47.553 21.447 48 22 48 C 22.553 48 23 47.553 23 47 L 23 45 C 23 44.447 22.553 44 22 44 z M 27 44 C 26.447 44 26 44.447 26 45 L 26 47 C 26 47.553 26.447 48 27 48 C 27.553 48 28 47.553 28 47 L 28 45 C 28 44.447 27.553 44 27 44 z M 32 44 C 31.447 44 31 44.447 31 45 L 31 47 C 31 47.553 31.447 48 32 48 C 32.553 48 33 47.553 33 47 L 33 45 C 33 44.447 32.553 44 32 44 z M 37 44 C 36.447 44 36 44.447 36 45 L 36 47 C 36 47.553 36.447 48 37 48 C 37.553 48 38 47.553 38 47 L 38 45 C 38 44.447 37.553 44 37 44 z M 42 44 C 41.447 44 41 44.447 41 45 L 41 47 C 41 47.553 41.447 48 42 48 C 42.553 48 43 47.553 43 47 L 43 45 C 43 44.447 42.553 44 42 44 z M 47 44 C 46.447 44 46 44.447 46 45 L 46 47 C 46 47.553 46.447 48 47 48 C 47.553 48 48 47.553 48 47 L 48 45 C 48 44.447 47.553 44 47 44 z M 8 49.644531 C 9.651 51.687531 12.174 53 15 53 L 49 53 C 51.826 53 54.349 51.687531 56 49.644531 L 56 51 C 56 53.757 53.757 56 51 56 L 13 56 C 10.243 56 8 53.757 8 51 L 8 49.644531 z"/></svg>